<?xml version="1.0" encoding="UTF-8" standalone="no"?>
<svg
   xmlns:dc="http://purl.org/dc/elements/1.1/"
   xmlns:cc="http://creativecommons.org/ns#"
   xmlns:rdf="http://www.w3.org/1999/02/22-rdf-syntax-ns#"
   xmlns:svg="http://www.w3.org/2000/svg"
   xmlns="http://www.w3.org/2000/svg"
   id="svg8"
   version="1.1"
   viewBox="0 0 561.65765 160.73219"
   height="160.73218mm"
   width="561.65765mm">
  <defs
     id="defs2">
    <clipPath
       id="clipPath1056"
       clipPathUnits="userSpaceOnUse">
      <rect
         y="65.526184"
         x="164.75488"
         height="29.501562"
         width="41.604767"
         id="rect1058"
         style="opacity:0.588;fill:#910303;fill-opacity:0.939086;fill-rule:evenodd;stroke:#340707;stroke-width:0;stroke-linecap:butt;stroke-linejoin:round;stroke-miterlimit:4;stroke-dasharray:none;stroke-dashoffset:0;stroke-opacity:1;paint-order:stroke fill markers" />
    </clipPath>
    <clipPath
       id="clipPath1056-9"
       clipPathUnits="userSpaceOnUse">
      <rect
         y="65.526184"
         x="164.75488"
         height="29.501562"
         width="41.604767"
         id="rect1058-1"
         style="opacity:0.588;fill:#910303;fill-opacity:0.939086;fill-rule:evenodd;stroke:#340707;stroke-width:0;stroke-linecap:butt;stroke-linejoin:round;stroke-miterlimit:4;stroke-dasharray:none;stroke-dashoffset:0;stroke-opacity:1;paint-order:stroke fill markers" />
    </clipPath>
    <clipPath
       id="clipPath10628"
       clipPathUnits="userSpaceOnUse">
      <rect
         ry="0"
         rx="0"
         y="86.999763"
         x="0.00010299683"
         height="210.00038"
         width="297.00085"
         id="rect10630"
         style="opacity:1;fill:#bef0ff;fill-opacity:0.960784;fill-rule:evenodd;stroke:none;stroke-width:0;stroke-linecap:butt;stroke-linejoin:round;stroke-miterlimit:4;stroke-dasharray:none;stroke-dashoffset:0;stroke-opacity:1;paint-order:stroke fill markers" />
    </clipPath>
    <clipPath
       id="clipPath1056-9-3"
       clipPathUnits="userSpaceOnUse">
      <rect
         y="65.526184"
         x="164.75488"
         height="29.501562"
         width="41.604767"
         id="rect1058-1-6"
         style="opacity:0.588;fill:#910303;fill-opacity:0.939086;fill-rule:evenodd;stroke:#340707;stroke-width:0;stroke-linecap:butt;stroke-linejoin:round;stroke-miterlimit:4;stroke-dasharray:none;stroke-dashoffset:0;stroke-opacity:1;paint-order:stroke fill markers" />
    </clipPath>
  </defs>
  <metadata
     id="metadata5">
    <rdf:RDF>
      <cc:Work
         rdf:about="">
        <dc:format>image/svg+xml</dc:format>
        <dc:type
           rdf:resource="http://purl.org/dc/dcmitype/StillImage" />
        <dc:title></dc:title>
      </cc:Work>
    </rdf:RDF>
  </metadata>
  <g
     transform="translate(-15.229732,-41.246519)"
     id="layer1">
    <flowRoot
       style="font-style:normal;font-weight:normal;font-size:16px;line-height:1.25;font-family:sans-serif;letter-spacing:0px;word-spacing:0px;fill:#000000;fill-opacity:1;stroke:none"
       id="flowRoot1668"
       xml:space="preserve"><flowRegion
         id="flowRegion1670"><rect
           y="787.44196"
           x="43.45718"
           height="142.95125"
           width="30.87747"
           id="rect1672" /></flowRegion><flowPara
         id="flowPara1674" /></flowRoot>
    <flowRoot
       style="font-style:normal;font-weight:normal;font-size:16px;line-height:1.25;font-family:sans-serif;letter-spacing:0px;word-spacing:0px;fill:#000000;fill-opacity:1;stroke:none"
       id="flowRoot967"
       xml:space="preserve"><flowRegion
         id="flowRegion969"><rect
           y="809.57043"
           x="225.61458"
           height="94.612564"
           width="433.43875"
           id="rect971" /></flowRegion><flowPara
         id="flowPara973" /></flowRoot>
    <path
       id="path825-5"
       style="fill:none;fill-opacity:1;fill-rule:evenodd;stroke:#ffffff;stroke-width:5.2;stroke-linecap:round;stroke-miterlimit:4;stroke-dasharray:none;stroke-dashoffset:0;stroke-opacity:1"
       d="M 158.96175,121.61261 A 48.366009,48.366089 0 0 1 110.62471,169.97869 48.366009,48.366089 0 0 1 62.229767,121.67054 48.366009,48.366089 0 0 1 110.50885,73.246599 48.366009,48.366089 0 0 1 158.96161,121.49675" />
    <rect
       rx="25.91923"
       ry="11.990515"
       y="140.8004"
       x="78.628769"
       height="29.422073"
       width="63.934105"
       id="rect1110-3"
       style="fill:#ffffff;fill-opacity:1;fill-rule:evenodd;stroke:#ffffff;stroke-width:2.44877;stroke-linecap:round;stroke-miterlimit:4;stroke-dasharray:none;stroke-dashoffset:0;stroke-opacity:1" />
    <rect
       ry="2.3129191"
       rx="3.2164073"
       y="137.5562"
       x="102.65151"
       height="20.696699"
       width="15.888626"
       id="rect1157-5"
       style="fill:#ffffff;fill-opacity:1;fill-rule:evenodd;stroke:#ffffff;stroke-width:3.95079;stroke-linecap:round;stroke-miterlimit:4;stroke-dasharray:none;stroke-dashoffset:0;stroke-opacity:1" />
    <path
       style="fill:#ffffff;fill-opacity:1;fill-rule:evenodd;stroke:#ffffff;stroke-width:3.27176;stroke-linecap:round;stroke-miterlimit:4;stroke-dasharray:none;stroke-dashoffset:0;stroke-opacity:1"
       id="path961-18-0"
       d="m 123.58274,98.210793 a 11.109225,5.9153018 0 0 1 -11.10259,5.915297 11.109225,5.9153018 0 0 1 -11.11586,-5.908225 11.109225,5.9153018 0 0 1 11.0893,-5.922365 11.109225,5.9153018 0 0 1 11.12911,5.901148" />
    <rect
       style="fill:#ffffff;fill-opacity:1;fill-rule:evenodd;stroke:#ffffff;stroke-width:3.38868;stroke-linecap:round;stroke-miterlimit:4;stroke-dasharray:none;stroke-dashoffset:0;stroke-opacity:1"
       id="rect1123-9-2"
       width="26.193352"
       height="47.061085"
       x="174.15927"
       y="73.644272"
       ry="14.34179"
       rx="13.096676"
       clip-path="url(#clipPath1056-9-3)"
       transform="matrix(1.1789012,0,0,1.02995,-110.29833,10.793206)" />
    <path
       style="fill:#ffffff;fill-opacity:1;fill-rule:evenodd;stroke:#ffffff;stroke-width:0;stroke-linecap:butt;stroke-linejoin:round;stroke-miterlimit:4;stroke-dasharray:none;stroke-dashoffset:0;stroke-opacity:1;paint-order:stroke fill markers"
       d="m 122.20024,111.1807 c -1.69997,-0.0125 -5.56022,-0.0397 -8.57838,-0.0604 -3.01814,-0.0207 -5.49055,-0.0418 -5.49422,-0.0471 -0.005,-0.01 0.13649,-2.29943 0.15937,-2.55089 l 0.012,-0.12962 1.18663,-0.021 c 0.65264,-0.0109 4.15867,-0.0622 7.79119,-0.11227 3.63252,-0.0501 6.97549,-0.0994 7.4288,-0.10926 0.45331,-0.0109 1.28784,-0.0185 1.85449,-0.0192 1.06807,-9.6e-4 1.53437,-0.027 1.96871,-0.10938 1.13314,-0.21503 2.29604,-0.84524 3.23688,-1.75417 0.27979,-0.2703 0.4209,-0.34144 0.68323,-0.3445 0.33135,-0.003 0.61549,0.16298 0.84599,0.49693 0.32547,0.47145 0.43955,1.18093 0.28686,1.78394 -0.17915,0.70741 -0.58886,1.24307 -1.27595,1.66823 -0.93413,0.57799 -2.22788,1.05363 -3.34898,1.23121 -0.77208,0.12222 -0.74641,0.12204 -6.75642,0.0777 z"
       id="path1100-3" />
    <path
       style="fill:#ffffff;fill-opacity:1;fill-rule:evenodd;stroke:#ffffff;stroke-width:0;stroke-linecap:butt;stroke-linejoin:round;stroke-miterlimit:4;stroke-dasharray:none;stroke-dashoffset:0;stroke-opacity:1;paint-order:stroke fill markers"
       d="m 98.991484,111.13292 c 1.699966,-0.0125 5.560216,-0.0397 8.578386,-0.0604 3.01814,-0.0207 5.49055,-0.0418 5.49421,-0.0471 0.005,-0.01 -0.13648,-2.29943 -0.15936,-2.55089 l -0.012,-0.12961 -1.18663,-0.0211 c -0.65263,-0.0109 -4.15867,-0.0622 -7.79119,-0.11227 -3.63252,-0.0501 -6.975498,-0.0994 -7.428812,-0.10926 -0.453314,-0.0109 -1.287842,-0.0185 -1.854501,-0.0192 -1.068077,-9.6e-4 -1.53438,-0.027 -1.968717,-0.10938 -1.133154,-0.21502 -2.296058,-0.84524 -3.236897,-1.75417 -0.27979,-0.2703 -0.420901,-0.34144 -0.683231,-0.34449 -0.331354,-0.003 -0.615495,0.16297 -0.846002,0.49692 -0.325464,0.47145 -0.43955,1.18093 -0.286857,1.78394 0.179151,0.70741 0.588863,1.24307 1.275955,1.66823 0.934132,0.57799 2.227896,1.05363 3.348998,1.23121 0.772081,0.12222 0.74642,0.12204 6.756463,0.0778 z"
       id="path1100-6-7" />
    <text
       id="text1058"
       y="150.12167"
       x="180.10356"
       style="font-style:normal;font-weight:normal;font-size:78.0904px;line-height:0.7;font-family:sans-serif;letter-spacing:0px;word-spacing:0px;fill:#ffffff;fill-opacity:1;stroke:none;stroke-width:0.264583"
       xml:space="preserve"><tspan
         style="font-style:normal;font-variant:normal;font-weight:bold;font-stretch:normal;font-size:78.0904px;font-family:Comfortaa;-inkscape-font-specification:'Comfortaa, Bold';font-variant-ligatures:normal;font-variant-caps:normal;font-variant-numeric:normal;font-variant-east-asian:normal;fill:#ffffff;fill-opacity:1;stroke-width:0.264583"
         y="150.12167"
         x="180.10356"
         id="tspan1056">Magritte</tspan></text>
  </g>
</svg>
